# xmcd
#
# Track frame offsets: 
#        150
#        13926
#        29288
#        42296
#        62278
#        75618
#        92754
#        112149
#        124896
#        138059
#        155812
#
# Disc length: 2192 seconds
#
# Revision: 0
# Processed by: cddbd v1.5.1PL0 Copyright (c) Steve Scherf et al.
# Submitted via: ExactAudioCopy v0.95a4
#
DISCID=8c088e0b
DTITLE=The Kinleys - All In The Family
DYEAR=2004
DGENRE=Country
TTITLE0=Climbin' Up Mt. Everest
TTITLE1=Love Train
TTITLE2=Little Shoulders
TTITLE3=Crazy Love
TTITLE4=How Can It Be That You Don't Love Me Anymore
TTITLE5=I Will
TTITLE6=Holding On For Life
TTITLE7=The Price Of Love
TTITLE8=Ridiculous
TTITLE9=Only A Prayer
TTITLE10=My Baby Blue (A Lullabye) (Bonus Track)
EXTD=
EXTT0=
EXTT1=
EXTT2=
EXTT3=
EXTT4=
EXTT5=
EXTT6=
EXTT7=
EXTT8=
EXTT9=
EXTT10=
PLAYORDER=
